<mxfile host="Electron" modified="2023-12-04T03:01:50.360Z" agent="Mozilla/5.0 (X11; Linux x86_64) AppleWebKit/537.36 (KHTML, like Gecko) draw.io/22.1.2 Chrome/114.0.5735.289 Electron/25.9.4 Safari/537.36" etag="C1T7HvZD09d53-2oL0Ph" version="22.1.2" type="device">
  <diagram id="C5RBs43oDa-KdzZeNtuy" name="Page-1">
    <mxGraphModel dx="941" dy="1750" grid="1" gridSize="10" guides="1" tooltips="1" connect="1" arrows="1" fold="1" page="1" pageScale="1" pageWidth="827" pageHeight="1169" math="0" shadow="0">
      <root>
        <mxCell id="WIyWlLk6GJQsqaUBKTNV-0" />
        <mxCell id="WIyWlLk6GJQsqaUBKTNV-1" parent="WIyWlLk6GJQsqaUBKTNV-0" />
        <mxCell id="hiT5ATvNtP7MLlKVlQ-h-18" value="" style="edgeStyle=orthogonalEdgeStyle;rounded=0;orthogonalLoop=1;jettySize=auto;html=1;" parent="WIyWlLk6GJQsqaUBKTNV-1" source="WIyWlLk6GJQsqaUBKTNV-3" target="hiT5ATvNtP7MLlKVlQ-h-17" edge="1">
          <mxGeometry relative="1" as="geometry" />
        </mxCell>
        <mxCell id="hiT5ATvNtP7MLlKVlQ-h-19" value="false" style="edgeLabel;html=1;align=center;verticalAlign=middle;resizable=0;points=[];" parent="hiT5ATvNtP7MLlKVlQ-h-18" vertex="1" connectable="0">
          <mxGeometry x="0.2487" relative="1" as="geometry">
            <mxPoint y="-8" as="offset" />
          </mxGeometry>
        </mxCell>
        <mxCell id="hiT5ATvNtP7MLlKVlQ-h-29" style="edgeStyle=orthogonalEdgeStyle;rounded=0;orthogonalLoop=1;jettySize=auto;html=1;entryX=1.006;entryY=0.335;entryDx=0;entryDy=0;entryPerimeter=0;" parent="WIyWlLk6GJQsqaUBKTNV-1" source="WIyWlLk6GJQsqaUBKTNV-3" target="hiT5ATvNtP7MLlKVlQ-h-20" edge="1">
          <mxGeometry relative="1" as="geometry">
            <mxPoint x="510" y="-120" as="targetPoint" />
            <Array as="points">
              <mxPoint x="511" y="-330" />
              <mxPoint x="511" y="-120" />
            </Array>
          </mxGeometry>
        </mxCell>
        <mxCell id="WIyWlLk6GJQsqaUBKTNV-3" value="Retrive Cached &lt;br&gt;Data" style="rounded=1;whiteSpace=wrap;html=1;fontSize=12;glass=0;strokeWidth=1;shadow=0;" parent="WIyWlLk6GJQsqaUBKTNV-1" vertex="1">
          <mxGeometry x="370" y="-350" width="120" height="40" as="geometry" />
        </mxCell>
        <mxCell id="hiT5ATvNtP7MLlKVlQ-h-21" value="" style="edgeStyle=orthogonalEdgeStyle;rounded=0;orthogonalLoop=1;jettySize=auto;html=1;entryX=1;entryY=0.5;entryDx=0;entryDy=0;exitX=0.5;exitY=1;exitDx=0;exitDy=0;" parent="WIyWlLk6GJQsqaUBKTNV-1" source="OKv4WVR78aXX_-WrYEEM-2" target="hiT5ATvNtP7MLlKVlQ-h-20" edge="1">
          <mxGeometry relative="1" as="geometry">
            <Array as="points" />
          </mxGeometry>
        </mxCell>
        <mxCell id="hiT5ATvNtP7MLlKVlQ-h-12" value="Retrive URL Serelized Data" style="rounded=1;whiteSpace=wrap;html=1;" parent="WIyWlLk6GJQsqaUBKTNV-1" vertex="1">
          <mxGeometry x="370" y="-460" width="120" height="60" as="geometry" />
        </mxCell>
        <mxCell id="hiT5ATvNtP7MLlKVlQ-h-13" value="" style="endArrow=classic;html=1;rounded=0;exitX=0.5;exitY=1;exitDx=0;exitDy=0;entryX=0.5;entryY=0;entryDx=0;entryDy=0;" parent="WIyWlLk6GJQsqaUBKTNV-1" source="hiT5ATvNtP7MLlKVlQ-h-12" target="WIyWlLk6GJQsqaUBKTNV-3" edge="1">
          <mxGeometry width="50" height="50" relative="1" as="geometry">
            <mxPoint x="400" y="-290" as="sourcePoint" />
            <mxPoint x="450" y="-340" as="targetPoint" />
          </mxGeometry>
        </mxCell>
        <mxCell id="hiT5ATvNtP7MLlKVlQ-h-14" value="false" style="edgeLabel;html=1;align=center;verticalAlign=middle;resizable=0;points=[];" parent="hiT5ATvNtP7MLlKVlQ-h-13" vertex="1" connectable="0">
          <mxGeometry x="0.0267" y="-3" relative="1" as="geometry">
            <mxPoint x="3" y="-5" as="offset" />
          </mxGeometry>
        </mxCell>
        <mxCell id="hiT5ATvNtP7MLlKVlQ-h-27" value="" style="edgeStyle=orthogonalEdgeStyle;rounded=0;orthogonalLoop=1;jettySize=auto;html=1;entryX=0.5;entryY=0;entryDx=0;entryDy=0;exitX=0.5;exitY=1;exitDx=0;exitDy=0;" parent="WIyWlLk6GJQsqaUBKTNV-1" source="hiT5ATvNtP7MLlKVlQ-h-17" target="hiT5ATvNtP7MLlKVlQ-h-20" edge="1">
          <mxGeometry relative="1" as="geometry">
            <mxPoint x="630" y="-290" as="targetPoint" />
          </mxGeometry>
        </mxCell>
        <mxCell id="hiT5ATvNtP7MLlKVlQ-h-17" value="Create empty House Object" style="whiteSpace=wrap;html=1;rounded=1;glass=0;strokeWidth=1;shadow=0;" parent="WIyWlLk6GJQsqaUBKTNV-1" vertex="1">
          <mxGeometry x="370" y="-260" width="120" height="60" as="geometry" />
        </mxCell>
        <mxCell id="hiT5ATvNtP7MLlKVlQ-h-20" value="&lt;div style=&quot;&quot;&gt;&lt;span style=&quot;background-color: initial;&quot;&gt;Parse House Object data into a new House instance, push it into the DOM&lt;/span&gt;&lt;/div&gt;" style="whiteSpace=wrap;html=1;rounded=1;align=center;" parent="WIyWlLk6GJQsqaUBKTNV-1" vertex="1">
          <mxGeometry x="370" y="-140" width="120" height="60" as="geometry" />
        </mxCell>
        <mxCell id="OKv4WVR78aXX_-WrYEEM-3" value="" style="edgeStyle=orthogonalEdgeStyle;rounded=0;orthogonalLoop=1;jettySize=auto;html=1;entryX=0.5;entryY=0;entryDx=0;entryDy=0;" parent="WIyWlLk6GJQsqaUBKTNV-1" source="hiT5ATvNtP7MLlKVlQ-h-12" target="OKv4WVR78aXX_-WrYEEM-2" edge="1">
          <mxGeometry relative="1" as="geometry">
            <Array as="points">
              <mxPoint x="590" y="-430" />
            </Array>
            <mxPoint x="490" y="-430" as="sourcePoint" />
            <mxPoint x="490" y="-110" as="targetPoint" />
          </mxGeometry>
        </mxCell>
        <mxCell id="OKv4WVR78aXX_-WrYEEM-4" value="true&lt;br&gt;" style="edgeLabel;html=1;align=center;verticalAlign=middle;resizable=0;points=[];" parent="OKv4WVR78aXX_-WrYEEM-3" vertex="1" connectable="0">
          <mxGeometry x="-0.2967" relative="1" as="geometry">
            <mxPoint x="-48" y="170" as="offset" />
          </mxGeometry>
        </mxCell>
        <mxCell id="OKv4WVR78aXX_-WrYEEM-5" value="true" style="edgeLabel;html=1;align=center;verticalAlign=middle;resizable=0;points=[];" parent="OKv4WVR78aXX_-WrYEEM-3" vertex="1" connectable="0">
          <mxGeometry x="-0.7952" y="1" relative="1" as="geometry">
            <mxPoint x="28" as="offset" />
          </mxGeometry>
        </mxCell>
        <mxCell id="OKv4WVR78aXX_-WrYEEM-2" value="Check if data is safe and House compatible trough interface" style="rounded=1;whiteSpace=wrap;html=1;" parent="WIyWlLk6GJQsqaUBKTNV-1" vertex="1">
          <mxGeometry x="530" y="-340" width="120" height="60" as="geometry" />
        </mxCell>
        <mxCell id="3ZkP93vahHEW3qW_47Jv-4" value="&lt;h1&gt;House&lt;/h1&gt;&lt;p&gt;&lt;span style=&quot;background-color: initial;&quot;&gt;The House instance is a Singleton collection of Libraries and the methods for manipulating them, with its correspondent View and Communiaction protocols&lt;/span&gt;&lt;br&gt;&lt;/p&gt;" style="text;html=1;strokeColor=none;fillColor=none;spacing=5;spacingTop=-20;whiteSpace=wrap;overflow=hidden;rounded=0;" vertex="1" parent="WIyWlLk6GJQsqaUBKTNV-1">
          <mxGeometry x="90" y="-490" width="190" height="160" as="geometry" />
        </mxCell>
        <mxCell id="3ZkP93vahHEW3qW_47Jv-5" value="&lt;h1&gt;Library&lt;/h1&gt;&lt;div&gt;All instances of the Library class contain a storage for Books and Comm protocols between the Stand (View) object and their storage. Updating the View on each operation&lt;br&gt;&lt;/div&gt;" style="text;html=1;strokeColor=none;fillColor=none;spacing=5;spacingTop=-20;whiteSpace=wrap;overflow=hidden;rounded=0;" vertex="1" parent="WIyWlLk6GJQsqaUBKTNV-1">
          <mxGeometry x="90" y="-350" width="190" height="150" as="geometry" />
        </mxCell>
        <mxCell id="3ZkP93vahHEW3qW_47Jv-6" value="&lt;h1&gt;Book&lt;/h1&gt;&lt;p&gt;Books selfcontain their Data and communicate only with their respective Library instance parent. One protocol is implemeted to serve Book info directly into the View&amp;nbsp;&lt;/p&gt;&lt;p&gt;&lt;span style=&quot;background-color: initial;&quot;&gt;A mediator preBook class is used for parsing and manipulating the Google Book API and converting them into local Book&#39;s&lt;/span&gt;&lt;/p&gt;" style="text;html=1;strokeColor=none;fillColor=none;spacing=5;spacingTop=-20;whiteSpace=wrap;overflow=hidden;rounded=0;" vertex="1" parent="WIyWlLk6GJQsqaUBKTNV-1">
          <mxGeometry x="90" y="-210" width="190" height="220" as="geometry" />
        </mxCell>
        <mxCell id="3ZkP93vahHEW3qW_47Jv-7" value="&lt;font style=&quot;font-size: 18px;&quot;&gt;House Parsing Procedure&lt;/font&gt;" style="text;html=1;strokeColor=none;fillColor=none;align=center;verticalAlign=middle;whiteSpace=wrap;rounded=0;" vertex="1" parent="WIyWlLk6GJQsqaUBKTNV-1">
          <mxGeometry x="400" y="-530" width="130" height="50" as="geometry" />
        </mxCell>
      </root>
    </mxGraphModel>
  </diagram>
</mxfile>
